<?xml version="1.0" encoding="UTF-8" standalone="no"?>
<svg
   width="282.45999mm"
   height="179.54276mm"
   viewBox="0 0 282.46001 179.54275"
   version="1.1"
   id="svg21"
   xmlns="http://www.w3.org/2000/svg"
   xmlns:svg="http://www.w3.org/2000/svg"
   xmlns:rdf="http://www.w3.org/1999/02/22-rdf-syntax-ns#"
   xmlns:cc="http://creativecommons.org/ns#"
   xmlns:dc="http://purl.org/dc/elements/1.1/">
  <defs
     id="defs25" />
  <path
     d="m 281.3,176.15595 v -4.5 c 0,-0.055 -0.045,-0.10001 -0.1,-0.10001 h -2.9 v -5.8 h 2.9 c 0.055,0 0.1,-0.045 0.1,-0.1 v -4.50001 0.437 c 0,-0.055 -0.045,-0.1 -0.1,-0.1 h -3 -4.9 v -2.854 c 0,-0.056 -0.045,-0.1 -0.1,-0.1 h -6 c -0.055,0 -0.1,0.044 -0.1,0.1 v 2.854 h -5.8 v -2.854 c 0,-0.056 -0.045,-0.1 -0.1,-0.1 h -6 c -0.055,0 -0.1,0.044 -0.1,0.1 v 2.854 h -5.8 v -2.854 c 0,-0.056 -0.045,-0.1 -0.1,-0.1 h -6 c -0.055,0 -0.1,0.044 -0.1,0.1 v 2.854 h -5.8 v -2.854 c 0,-0.056 -0.045,-0.1 -0.1,-0.1 h -6 c -0.055,0 -0.1,0.044 -0.1,0.1 v 2.854 h -5.8 v -2.854 c 0,-0.056 -0.045,-0.1 -0.1,-0.1 h -6 c -0.055,0 -0.1,0.044 -0.1,0.1 v 2.854 h -5.8 v -2.854 c 0,-0.056 -0.045,-0.1 -0.1,-0.1 h -6 c -0.055,0 -0.1,0.044 -0.1,0.1 v 2.854 h -5.8 v -2.854 c 0,-0.056 -0.045,-0.1 -0.1,-0.1 h -6 c -0.055,0 -0.1,0.044 -0.1,0.1 v 2.854 h -5.8 v -2.854 c 0,-0.056 -0.045,-0.1 -0.1,-0.1 h -6 c -0.055,0 -0.1,0.044 -0.1,0.1 v 2.854 h -4.9 -3 c -0.055,0 -0.1,0.045 -0.1,0.1 v -0.437 4.50001 c 0,0.055 0.045,0.1 0.1,0.1 h 2.9 v 5.8 h -2.9 c -0.055,0 -0.1,0.045 -0.1,0.10001 v 4.5 c 0,0.055 0.045,0.1 0.1,0.1 h 3 4.9 v 2.9 c 0,0.055 0.045,0.1 0.1,0.1 h 6 c 0.055,0 0.1,-0.045 0.1,-0.1 v -2.9 h 5.8 v 2.9 c 0,0.055 0.045,0.1 0.1,0.1 h 6 c 0.055,0 0.1,-0.045 0.1,-0.1 v -2.9 h 5.8 v 2.9 c 0,0.055 0.045,0.1 0.1,0.1 h 6 c 0.055,0 0.1,-0.045 0.1,-0.1 v -2.9 h 5.8 v 2.9 c 0,0.055 0.045,0.1 0.1,0.1 h 6 c 0.055,0 0.1,-0.045 0.1,-0.1 v -2.9 h 5.8 v 2.9 c 0,0.055 0.045,0.1 0.1,0.1 h 6 c 0.055,0 0.1,-0.045 0.1,-0.1 v -2.9 h 5.8 v 2.9 c 0,0.055 0.045,0.1 0.1,0.1 h 6 c 0.055,0 0.1,-0.045 0.1,-0.1 v -2.9 h 5.8 v 2.9 c 0,0.055 0.045,0.1 0.1,0.1 h 6 c 0.055,0 0.1,-0.045 0.1,-0.1 v -2.9 h 5.8 v 2.9 c 0,0.055 0.045,0.1 0.1,0.1 h 6 c 0.055,0 0.1,-0.045 0.1,-0.1 v -2.9 h 4.9 3 c 0.055,0 0.1,-0.045 0.1,-0.1 z"
     stroke="#000000"
     stroke-width="0.2"
     id="path14"
     style="fill:none;stroke:#ff0000;stroke-linecap:round;stroke-linejoin:round;stroke-opacity:1" />
  <path
     d="m 175.1,3.200001 v 7.317 c 0,0.055 0.045,0.1 0.1,0.1 h 2.9 v 5.8 h -2.9 c -0.055,0 -0.1,0.044 -0.1,0.1 v 6 c 0,0.055 0.045,0.1 0.1,0.1 h 2.9 v 5.8 h -2.9 c -0.055,0 -0.1,0.044 -0.1,0.1 v 7.316 c 0,0.055 0.045,0.1 0.1,0.1 h 3 4.9 v 2.9 c 0,0.055 0.045,0.1 0.1,0.1 h 6 c 0.055,0 0.1,-0.045 0.1,-0.1 v -2.9 h 5.79999 v 2.9 c 0,0.055 0.045,0.1 0.1,0.1 h 6 c 0.055,0 0.1,-0.045 0.1,-0.1 v -2.9 h 5.8 v 2.9 c 0,0.055 0.045,0.1 0.1,0.1 h 6 c 0.055,0 0.1,-0.045 0.1,-0.1 v -2.9 h 5.8 v 2.9 c 0,0.055 0.045,0.1 0.1,0.1 h 6 c 0.055,0 0.1,-0.045 0.1,-0.1 v -2.9 h 5.8 v 2.9 c 0,0.055 0.045,0.1 0.1,0.1 h 6 c 0.055,0 0.1,-0.045 0.1,-0.1 v -2.9 h 5.8 v 2.9 c 0,0.055 0.045,0.1 0.1,0.1 H 249.2 c 0.055,0 0.1,-0.045 0.1,-0.1 v -2.9 h 5.8 v 2.9 c 0,0.055 0.045,0.1 0.1,0.1 h 6 c 0.055,0 0.1,-0.045 0.1,-0.1 v -2.9 h 5.8 v 2.9 c 0,0.055 0.045,0.1 0.1,0.1 h 6 c 0.055,0 0.1,-0.045 0.1,-0.1 v -2.9 h 4.9 3 c 0.055,0 0.1,-0.045 0.1,-0.1 v -7.316 c 0,-0.056 -0.045,-0.1 -0.1,-0.1 h -2.9 v -5.8 h 2.9 c 0.055,0 0.1,-0.045 0.1,-0.1 v -6 c 0,-0.056 -0.045,-0.1 -0.1,-0.1 h -2.9 v -5.8 h 2.9 c 0.055,0 0.1,-0.045 0.1,-0.1 v -7.317 c 0,-0.055 -0.045,-0.1 -0.1,-0.1 h -3 -4.9 V 0.2 c 0,-0.055 -0.045,-0.1 -0.1,-0.1 h -6 c -0.055,0 -0.1,0.045 -0.1,0.1 v 2.900001 h -5.8 V 0.2 c 0,-0.055 -0.045,-0.1 -0.1,-0.1 h -6 c -0.055,0 -0.1,0.045 -0.1,0.1 v 2.900001 h -5.8 V 0.2 c 0,-0.055 -0.045,-0.1 -0.1,-0.1 h -6.00001 c -0.055,0 -0.1,0.045 -0.1,0.1 v 2.900001 h -5.8 V 0.2 c 0,-0.055 -0.045,-0.1 -0.1,-0.1 h -6 c -0.055,0 -0.1,0.045 -0.1,0.1 v 2.900001 h -5.8 V 0.2 c 0,-0.055 -0.045,-0.1 -0.1,-0.1 h -6 c -0.055,0 -0.1,0.045 -0.1,0.1 v 2.900001 h -5.8 V 0.2 c 0,-0.055 -0.045,-0.1 -0.1,-0.1 h -6 c -0.055,0 -0.1,0.045 -0.1,0.1 v 2.900001 h -5.8 V 0.2 c 0,-0.055 -0.045,-0.1 -0.1,-0.1 h -6 c -0.055,0 -0.1,0.045 -0.1,0.1 V 3.100001 H 189.3 V 0.2 c 0,-0.055 -0.045,-0.1 -0.1,-0.1 h -6 c -0.055,0 -0.1,0.045 -0.1,0.1 v 2.900001 h -4.9 -3 c -0.055,0 -0.1,0.045 -0.1,0.1 z"
     stroke="#000000"
     stroke-width="0.2"
     id="path18"
     style="fill:none;stroke:#ff0000;stroke-linecap:round;stroke-linejoin:round;stroke-opacity:1" />
  <g
     id="g1906"
     transform="translate(39.225808,-117.78343)">
    <circle
       style="fill:none;fill-opacity:1;stroke:#ff0000;stroke-width:0.1;stroke-linecap:round;stroke-linejoin:round;stroke-opacity:1;paint-order:fill markers stroke"
       id="path5469"
       cx="116.39398"
       cy="149.4449"
       r="2" />
    <circle
       style="fill:none;fill-opacity:1;stroke:#ff0000;stroke-width:0.1;stroke-linecap:round;stroke-linejoin:round;stroke-opacity:1;paint-order:fill markers stroke"
       id="circle5551"
       cx="126.39398"
       cy="149.4449"
       r="2" />
    <rect
       style="fill:none;fill-opacity:1;stroke:#ff0000;stroke-width:0.1;stroke-linecap:round;stroke-linejoin:round;stroke-opacity:1;paint-order:fill markers stroke"
       id="rect5575"
       width="20"
       height="12.6"
       x="111.39398"
       y="143.09489" />
  </g>
  <g
     id="g1901"
     transform="translate(39.179558,-121.61594)">
    <circle
       style="fill:none;fill-opacity:1;stroke:#ff0000;stroke-width:0.1;stroke-linecap:round;stroke-linejoin:round;stroke-opacity:1;paint-order:fill markers stroke"
       id="path5469-6"
       cx="116.44023"
       cy="168.2774"
       r="2" />
    <circle
       style="fill:none;fill-opacity:1;stroke:#ff0000;stroke-width:0.1;stroke-linecap:round;stroke-linejoin:round;stroke-opacity:1;paint-order:fill markers stroke"
       id="circle5551-2"
       cx="126.44024"
       cy="168.2774"
       r="2" />
    <rect
       style="fill:none;fill-opacity:1;stroke:#ff0000;stroke-width:0.1;stroke-linecap:round;stroke-linejoin:round;stroke-opacity:1;paint-order:fill markers stroke"
       id="rect5575-9"
       width="20"
       height="12.6"
       x="111.44023"
       y="161.9274" />
  </g>
  <g
     id="g5732"
     transform="translate(175,49.372096)"
     style="stroke:#ff0000;stroke-opacity:1">
    <path
       d="m 2.717,106.29999 h 5.772 c 0.055,0 0.1,-0.045 0.1,-0.1 v -2.9 h 5.8 v 2.9 c 0,0.055 0.044,0.1 0.1,0.1 h 6 c 0.055,0 0.1,-0.045 0.1,-0.1 v -2.9 h 5.8 v 2.9 c 0,0.055 0.044,0.1 0.1,0.1 h 6 c 0.055,0 0.1,-0.045 0.1,-0.1 v -2.9 h 5.8 v 2.9 c 0,0.055 0.044,0.1 0.1,0.1 h 6 c 0.055,0 0.1,-0.045 0.1,-0.1 v -2.9 h 5.8 v 2.9 c 0,0.055 0.044,0.1 0.1,0.1 h 6 c 0.055,0 0.1,-0.045 0.1,-0.1 v -2.9 h 5.8 v 2.9 c 0,0.055 0.044,0.1 0.1,0.1 h 6 c 0.055,0 0.1,-0.045 0.1,-0.1 v -2.9 h 5.8 v 2.9 c 0,0.055 0.044,0.1 0.1,0.1 h 6 c 0.055,0 0.1,-0.045 0.1,-0.1 v -2.9 h 5.8 v 2.9 c 0,0.055 0.044,0.1 0.1,0.1 h 6 c 0.055,0 0.1,-0.045 0.1,-0.1 v -2.9 h 5.8 v 2.9 c 0,0.055 0.044,0.1 0.1,0.1 h 5.771 3 c 0.055,0 0.1,-0.045 0.1,-0.1 v -3 -4.999996 c 0,-0.055 -0.045,-0.1 -0.1,-0.1 h -2.9 v -5.8 h 2.9 c 0.055,0 0.1,-0.045 0.1,-0.1 v -6 c 0,-0.055 -0.045,-0.1 -0.1,-0.1 h -2.9 v -5.8 h 2.9 c 0.055,0 0.1,-0.045 0.1,-0.1 v -6 c 0,-0.055 -0.045,-0.1 -0.1,-0.1 h -2.9 v -5.8 h 2.9 c 0.055,0 0.1,-0.045 0.1,-0.1 v -6 c 0,-0.055 -0.045,-0.1 -0.1,-0.1 h -2.9 v -5.8 h 2.9 c 0.055,0 0.1,-0.045 0.1,-0.1 v -5.999999 c 0,-0.055 -0.045,-0.1 -0.1,-0.1 h -2.9 v -5.800002 h 2.9 c 0.055,0 0.1,-0.045 0.1,-0.1 v -6 c 0,-0.055 -0.045,-0.1 -0.1,-0.1 h -2.9 v -5.8 h 2.9 c 0.055,0 0.1,-0.045 0.1,-0.1 v -6 c 0,-0.055 -0.045,-0.1 -0.1,-0.1 h -2.9 v -5.799995 h 2.9 c 0.055,0 0.1,-0.045 0.1,-0.1 v -6 c 0,-0.055 -0.045,-0.1 -0.1,-0.1 h -2.9 v -5.8 h 2.9 c 0.055,0 0.1,-0.045 0.1,-0.1 V 3.2 0.2 c 0,-0.055 -0.045,-0.1 -0.1,-0.1 h -3 -5.771 c -0.056,0 -0.1,0.045 -0.1,0.1 v 2.9 h -5.8 V 0.2 c 0,-0.055 -0.045,-0.1 -0.1,-0.1 h -6 c -0.056,0 -0.1,0.045 -0.1,0.1 v 2.9 h -5.8 V 0.2 c 0,-0.055 -0.045,-0.1 -0.1,-0.1 h -6 c -0.056,0 -0.1,0.045 -0.1,0.1 v 2.9 h -5.8 V 0.2 c 0,-0.055 -0.045,-0.1 -0.1,-0.1 h -6 c -0.056,0 -0.1,0.045 -0.1,0.1 v 2.9 h -5.8 V 0.2 c 0,-0.055 -0.045,-0.1 -0.1,-0.1 h -6 c -0.056,0 -0.1,0.045 -0.1,0.1 v 2.9 h -5.8 V 0.2 c 0,-0.055 -0.045,-0.1 -0.1,-0.1 h -6 c -0.056,0 -0.1,0.045 -0.1,0.1 v 2.9 h -5.8 V 0.2 c 0,-0.055 -0.045,-0.1 -0.1,-0.1 h -6 c -0.056,0 -0.1,0.045 -0.1,0.1 v 2.9 h -5.8 V 0.2 c 0,-0.055 -0.045,-0.1 -0.1,-0.1 h -6 c -0.056,0 -0.1,0.045 -0.1,0.1 v 2.9 h -5.8 V 0.2 c 0,-0.055 -0.045,-0.1 -0.1,-0.1 H 2.717 0.2 C 0.145,0.1 0.1,0.145 0.1,0.2 v 3 4.999998 c 0,0.055 0.045,0.1 0.1,0.1 h 2.854 v 5.8 H 0.2 c -0.055,0 -0.1,0.045 -0.1,0.1 v 6 c 0,0.055 0.045,0.1 0.1,0.1 h 2.854 v 5.799995 H 0.2 c -0.055,0 -0.1,0.045 -0.1,0.1 v 6 c 0,0.055 0.045,0.1 0.1,0.1 h 2.854 v 5.8 H 0.2 c -0.055,0 -0.1,0.045 -0.1,0.1 v 6 c 0,0.055 0.045,0.1 0.1,0.1 h 2.854 v 5.800002 H 0.2 c -0.055,0 -0.1,0.045 -0.1,0.1 v 5.999999 c 0,0.055 0.045,0.1 0.1,0.1 h 2.854 v 5.8 H 0.2 c -0.055,0 -0.1,0.045 -0.1,0.1 v 6 c 0,0.055 0.045,0.1 0.1,0.1 h 2.854 v 5.8 H 0.2 c -0.055,0 -0.1,0.045 -0.1,0.1 v 6 c 0,0.055 0.045,0.1 0.1,0.1 h 2.854 v 5.8 H 0.2 c -0.055,0 -0.1,0.045 -0.1,0.1 v 6 c 0,0.055 0.045,0.1 0.1,0.1 h 2.854 v 5.8 H 0.2 c -0.055,0 -0.1,0.045 -0.1,0.1 v 4.999996 3 c 0,0.055 0.045,0.1 0.1,0.1 z"
       stroke="#000000"
       stroke-width="0.2"
       id="path16"
       style="fill:none;stroke:#ff0000;stroke-linecap:round;stroke-linejoin:round;stroke-opacity:1" />
    <circle
       style="fill:none;fill-opacity:1;stroke:#ff0000;stroke-width:0.1;stroke-linecap:round;stroke-linejoin:round;stroke-opacity:1;paint-order:fill markers stroke"
       id="circle5725"
       cx="71.678146"
       cy="53.250027"
       r="2" />
    <circle
       style="fill:none;fill-opacity:1;stroke:#ff0000;stroke-width:0.1;stroke-linecap:round;stroke-linejoin:round;stroke-opacity:1;paint-order:fill markers stroke"
       id="circle5727"
       cx="81.678146"
       cy="53.250027"
       r="2" />
  </g>
  <g
     id="g1884"
     transform="rotate(-90,205.93584,74.469008)">
    <circle
       style="fill:none;fill-opacity:1;stroke:#ff0000;stroke-width:0.1;stroke-linecap:round;stroke-linejoin:round;stroke-opacity:1;paint-order:fill markers stroke"
       id="path5469-5"
       cx="265.35483"
       cy="22.93342"
       r="2" />
    <circle
       style="fill:none;fill-opacity:1;stroke:#ff0000;stroke-width:0.1;stroke-linecap:round;stroke-linejoin:round;stroke-opacity:1;paint-order:fill markers stroke"
       id="circle5551-3"
       cx="275.35483"
       cy="22.93342"
       r="2" />
    <rect
       style="fill:none;fill-opacity:1;stroke:#ff0000;stroke-width:0.160459;stroke-linecap:round;stroke-linejoin:round;stroke-opacity:1;paint-order:fill markers stroke"
       id="rect5575-5"
       width="19.939541"
       height="32.539543"
       x="260.38507"
       y="6.6133971" />
    <circle
       style="fill:none;fill-opacity:1;stroke:#ff0000;stroke-width:0.1;stroke-linecap:round;stroke-linejoin:round;stroke-opacity:1;paint-order:fill markers stroke"
       id="circle5753"
       cx="270.64658"
       cy="12.350092"
       r="2" />
    <circle
       style="fill:none;fill-opacity:1;stroke:#ff0000;stroke-width:0.1;stroke-linecap:round;stroke-linejoin:round;stroke-opacity:1;paint-order:fill markers stroke"
       id="circle5755"
       cx="270.64658"
       cy="33.516762"
       r="2" />
  </g>
  <g
     id="g1936">
    <g
       id="g4723"
       transform="translate(-0.87086792,-2.2511856)"
       style="stroke:#ff0000;stroke-opacity:1">
      <path
         id="path12"
         d="m 30.870926,24.151477 c 0.055,0 0.100251,0.0447 0.100251,0.0997 v 2.90008 h 5.799645 v -2.90008 c 3e-6,-0.055 0.04525,-0.0997 0.100254,-0.0997 z m 12.000302,0 c 0.055,0 0.09973,0.0447 0.09973,0.0997 v 2.90008 h 5.800162 v -2.90008 c 0,-0.055 0.04474,-0.0997 0.09974,-0.0997 z m 11.999782,0 c 0.055,0 0.100253,0.0447 0.100253,0.0997 v 2.90008 h 5.799646 v -2.90008 c 0,-0.055 0.04525,-0.0997 0.100253,-0.0997 z m 12.000288,0 c 0.05501,0 0.09975,0.0447 0.09975,0.0997 v 2.90008 h 5.800169 v -2.90008 c 0,-0.055 0.04474,-0.0997 0.09972,-0.0997 z m 11.999807,0 c 0.05498,0 0.09972,0.0447 0.09972,0.0997 v 2.90008 h 5.80017 v -2.90008 c 0,-0.055 0.04524,-0.0997 0.10025,-0.0997 z m 11.99978,0 c 0.05501,0 0.10025,0.0447 0.10025,0.0997 v 2.90008 h 5.80017 v -2.90008 c 0,-0.055 0.04471,-0.0997 0.09972,-0.0997 z m 12.000305,0 c 0.055,0 0.0997,0.0447 0.0997,0.0997 v 2.90008 h 5.80017 v -2.90008 c 0,-0.055 0.0447,-0.0997 0.0997,-0.0997 z m 11.99978,0 c 0.055,0 0.10025,0.0447 0.10025,0.0997 v 2.90008 h 5.79964 v -2.90008 c 0,-0.055 0.0452,-0.0997 0.10025,-0.0997 z m -92.099807,8.099761 v 6.000149 c 0,-0.055 0.04473,-0.10025 0.09973,-0.10025 h 2.900082 v -5.799649 h -2.900082 c -0.055,0 -0.09973,-0.0452 -0.09973,-0.10025 z m 106.199717,0 c 0,0.055 -0.0447,0.10025 -0.0997,0.10025 h -2.90008 v 5.799649 h 2.90008 c 0.055,0 0.0997,0.0453 0.0997,0.10025 z M 22.771163,44.251027 v 6.00014 c 0,-0.055 0.04473,-0.0997 0.09973,-0.0997 h 2.900082 v -5.80016 h -2.900082 c -0.055,0 -0.09973,-0.0453 -0.09973,-0.10025 z m 106.199717,0 c 0,0.055 -0.0447,0.10025 -0.0997,0.10025 h -2.90008 v 5.80016 h 2.90008 c 0.055,0 0.0997,0.0447 0.0997,0.0997 z m -106.199717,12.0003 v 6.00015 c 0,-0.055 0.04473,-0.10025 0.09973,-0.10025 h 2.900082 v -5.80017 h -2.900082 c -0.055,0 -0.09973,-0.0447 -0.09973,-0.0997 z m 106.199717,0 c 0,0.055 -0.0447,0.0997 -0.0997,0.0997 h -2.90008 v 5.80017 h 2.90008 c 0.055,0 0.0997,0.0453 0.0997,0.10025 z M 22.771163,68.251107 v 6.00015 c 0,-0.055 0.04473,-0.0997 0.09973,-0.0997 h 2.900082 v -5.80016 h -2.900082 c -0.055,0 -0.09973,-0.0453 -0.09973,-0.10025 z m 106.199717,0 c 0,0.055 -0.0447,0.10025 -0.0997,0.10025 h -2.90008 v 5.80016 h 2.90008 c 0.055,0 0.0997,0.0447 0.0997,0.0997 z m -106.199717,12.0003 v 5.99963 c 0,-0.055 0.04473,-0.0997 0.09973,-0.0997 h 2.900082 v -5.80016 h -2.900082 c -0.055,0 -0.09973,-0.0447 -0.09973,-0.0997 z m 106.199717,0 c 0,0.055 -0.0447,0.0997 -0.0997,0.0997 h -2.90008 v 5.80016 h 2.90008 c 0.055,0 0.0997,0.0447 0.0997,0.0997 z M 22.771163,92.251197 v 6.00015 c 0,-0.055 0.04473,-0.10026 0.09973,-0.10026 h 2.900082 v -5.79964 h -2.900082 c -0.055,0 -0.09973,-0.0453 -0.09973,-0.10025 z m 106.199717,0 c 0,0.055 -0.0447,0.10025 -0.0997,0.10025 h -2.90008 v 5.79964 h 2.90008 c 0.055,0 0.0997,0.0453 0.0997,0.10026 z M 22.771163,104.2515 v 5.99963 c 0,-0.055 0.04473,-0.0997 0.09973,-0.0997 h 2.900082 v -5.80016 h -2.900082 c -0.055,0 -0.09973,-0.0447 -0.09973,-0.0997 z m 106.199717,0 c 0,0.055 -0.0447,0.0997 -0.0997,0.0997 h -2.90008 v 5.80016 h 2.90008 c 0.055,0 0.0997,0.0447 0.0997,0.0997 z M 22.771163,116.25128 v 6.00015 c 0,-0.055 0.04473,-0.10025 0.09973,-0.10025 h 2.900082 v -5.79965 h -2.900082 c -0.055,0 -0.09973,-0.0453 -0.09973,-0.10025 z m 106.199717,0 c 0,0.055 -0.0447,0.10025 -0.0997,0.10025 h -2.90008 v 5.79965 h 2.90008 c 0.055,0 0.0997,0.0452 0.0997,0.10025 z m -97.999703,11.1001 v 2.90008 c 0,0.055 -0.04525,0.0997 -0.100251,0.0997 h 6.00015 c -0.055,0 -0.100254,-0.0447 -0.100254,-0.0997 v -2.90008 z m 11.999785,0 v 2.90008 c 0,0.055 -0.04474,0.0997 -0.09973,0.0997 h 5.999633 c -0.055,0 -0.09974,-0.0447 -0.09974,-0.0997 v -2.90008 z m 12.000301,0 v 2.90008 c 0,0.055 -0.04525,0.0997 -0.100253,0.0997 h 6.000152 c -0.055,0 -0.100253,-0.0447 -0.100253,-0.0997 v -2.90008 z m 11.999783,0 v 2.90008 c 0,0.055 -0.04474,0.0997 -0.09975,0.0997 h 5.999639 c -0.05498,0 -0.09972,-0.0447 -0.09972,-0.0997 v -2.90008 z m 11.99978,0 v 2.90008 c 0,0.055 -0.04474,0.0997 -0.09972,0.0997 h 6.000141 c -0.05501,0 -0.10025,-0.0447 -0.10025,-0.0997 v -2.90008 z m 12.000309,0 v 2.90008 c 0,0.055 -0.04524,0.0997 -0.10025,0.0997 h 6.000141 c -0.05501,0 -0.09972,-0.0447 -0.09972,-0.0997 v -2.90008 z m 11.999775,0 v 2.90008 c 0,0.055 -0.0447,0.0997 -0.0997,0.0997 h 5.99961 c -0.055,0 -0.0997,-0.0447 -0.0997,-0.0997 v -2.90008 z m 12.00031,0 v 2.90008 c 0,0.055 -0.0453,0.0997 -0.10025,0.0997 h 6.00014 c -0.055,0 -0.10025,-0.0447 -0.10025,-0.0997 v -2.90008 z"
         style="fill:none;fill-opacity:1;stroke:#ff0000;stroke-width:0.264583;stroke-linecap:round;stroke-linejoin:round;stroke-opacity:1" />
      <circle
         style="fill:none;fill-opacity:1;stroke:#ff0000;stroke-width:0.1;stroke-linecap:round;stroke-linejoin:round;stroke-opacity:1;paint-order:fill markers stroke"
         id="path4634"
         cx="-75.920868"
         cy="77.301186"
         r="75"
         transform="scale(-1,1)" />
    </g>
    <g
       style="fill:none;fill-opacity:1;stroke:#0000ff;stroke-linecap:round;stroke-linejoin:round;stroke-opacity:1"
       id="g14995">
      <g
         transform="translate(52.8105,50.9714)"
         id="g14955"
         style="fill:none;fill-opacity:1;stroke:#0000ff;stroke-opacity:1">
        <path
           d="m 148,9.45 6,642.55 -56.4,-25 85.4,35 78,12 h 101 l 85,-50 48,-73 12,-82 -41,-85 -53,-50 -44,-19 -98,19 -110,-19 88,-16 110,13 32,-95 59,-107 54,-78.5 22,-15.7 35,3.1"
           style="fill:none;fill-opacity:1;stroke:#0000ff;stroke-width:0.111in;stroke-opacity:1"
           transform="scale(0.0211667,-0.0211667)"
           id="path14947" />
        <path
           d="M 485,658 H 129 148 V 6.3 M 75.6,362 H 422"
           style="fill:none;fill-opacity:1;stroke:#0000ff;stroke-width:0.111in;stroke-opacity:1"
           transform="matrix(0.0211667,0,0,-0.0211667,12.192,0)"
           id="path14949" />
        <path
           d="M 69.3,658 H 356 211 V 18.9 H 53.5 353"
           style="fill:none;fill-opacity:1;stroke:#0000ff;stroke-width:0.111in;stroke-opacity:1"
           transform="matrix(0.0211667,0,0,-0.0211667,22.9235,0)"
           id="path14951" />
        <path
           d="m 158,25.2 -4,623.8 -47,-16 85,22 H 306 L 403,630 488,570 554,463 576,346 561,227 504,123 410,50.4 312,15.8 214,9.45 129,25.2 85,47.2"
           style="fill:none;fill-opacity:1;stroke:#0000ff;stroke-width:0.111in;stroke-opacity:1"
           transform="matrix(0.0211667,0,0,-0.0211667,30.988,0)"
           id="path14953" />
      </g>
      <g
         transform="translate(41.5075,72.1381)"
         id="g14971"
         style="fill:none;fill-opacity:1;stroke:#0000ff;stroke-opacity:1">
        <path
           d="M 567,88.2 520,44.1 463,15.8 372,3.15 261,34.6 173,104 l -53,91 -19,98 6,104 19,91 66,104 88,60 82,16 63,3 57,-16 41,-25 28,-22"
           style="fill:none;fill-opacity:1;stroke:#0000ff;stroke-width:0.111in;stroke-opacity:1"
           transform="scale(0.0211667,-0.0211667)"
           id="path14957" />
        <path
           d="m 110,658 10,-645.4 -16,18.9 31,255.5 51,78 63,54 72,19 54,-25 44,-32 13,-91 -4,-47 V 47.2 l 19,-25.1 38,-6.3"
           style="fill:none;fill-opacity:1;stroke:#0000ff;stroke-width:0.111in;stroke-opacity:1"
           transform="matrix(0.0211667,0,0,-0.0211667,12.9329,0)"
           id="path14959" />
        <path
           d="M 117,438 V 9.45 M 94.5,630 v -41 l 31.5,-3 -3,44 H 94.5"
           style="fill:none;fill-opacity:1;stroke:#0000ff;stroke-width:0.111in;stroke-opacity:1"
           transform="matrix(0.0211667,0,0,-0.0211667,23.6644,0)"
           id="path14961" />
        <path
           d="M 419,384 356,428 265,438 186,413 120,343 91.4,265 101,145 161,53.6 246,6.3 h 78 l 98,53.6"
           style="fill:none;fill-opacity:1;stroke:#0000ff;stroke-width:0.111in;stroke-opacity:1"
           transform="matrix(0.0211667,0,0,-0.0211667,27.3897,0)"
           id="path14963" />
        <path
           d="M 107,662 117,419 113,211 107,9.45 113,293 l 117,110 94,32 76,-60 -9,-88 -54,-41 -47,-35 -47,-13 -26,13 -3,22 29,-3 25,-28 97,-151.6 26,-37.8 28,3.2"
           style="fill:none;fill-opacity:1;stroke:#0000ff;stroke-width:0.111in;stroke-opacity:1"
           transform="matrix(0.0211667,0,0,-0.0211667,36.8512,0)"
           id="path14965" />
        <path
           d="m 53.5,249 119.5,-32 126,-9 82,25 54,69 -13,57 -47,57 -98,22 -82,-28 -56,-76 -29,-60 v -98 l 25,-81.5 82,-72.4 73,-15.8 69,6.3 76,50.4"
           style="fill:none;fill-opacity:1;stroke:#0000ff;stroke-width:0.111in;stroke-opacity:1"
           transform="matrix(0.0211667,0,0,-0.0211667,46.2492,0)"
           id="path14967" />
        <path
           d="M 113,432 129,15.8 107,9.45 101,44.1 129,274 l 79,113 72,45 89,-13 53,-60 19,-94 -6,-217.8 15,-28.3 h 26"
           style="fill:none;fill-opacity:1;stroke:#0000ff;stroke-width:0.111in;stroke-opacity:1"
           transform="matrix(0.0211667,0,0,-0.0211667,56.3246,0)"
           id="path14969" />
      </g>
      <g
         transform="translate(56.2289,93.3048)"
         id="g14981"
         style="fill:none;fill-opacity:1;stroke:#0000ff;stroke-opacity:1">
        <path
           d="M 135,3.15 139,665 517,3.15 523,12.6 520,665"
           style="fill:none;fill-opacity:1;stroke:#0000ff;stroke-width:0.111in;stroke-opacity:1"
           transform="scale(0.0211667,-0.0211667)"
           id="path14973" />
        <path
           d="m 53.5,249 119.5,-32 126,-9 82,25 54,69 -13,57 -47,57 -98,22 -82,-28 -56,-76 -29,-60 v -98 l 25,-81.5 82,-72.4 73,-15.8 69,6.3 76,50.4"
           style="fill:none;fill-opacity:1;stroke:#0000ff;stroke-width:0.111in;stroke-opacity:1"
           transform="matrix(0.0211667,0,0,-0.0211667,13.208,0)"
           id="path14975" />
        <path
           d="m 353,394 -98,44 -85,-13 -60,-69 22,-69 120,-54 104,-57 19,-63 L 337,44.1 230,9.45 129,34.6 85,75.6"
           style="fill:none;fill-opacity:1;stroke:#0000ff;stroke-width:0.111in;stroke-opacity:1"
           transform="matrix(0.0211667,0,0,-0.0211667,23.2834,0)"
           id="path14977" />
        <path
           d="m 145,570 3,-513.3 16,-37.8 44,-6.3 63,25.2 M 47.2,422 268,419"
           style="fill:none;fill-opacity:1;stroke:#0000ff;stroke-width:0.111in;stroke-opacity:1"
           transform="matrix(0.0211667,0,0,-0.0211667,31.75,0)"
           id="path14979" />
      </g>
      <g
         transform="translate(53.001,114.471)"
         id="g14993"
         style="fill:none;fill-opacity:1;stroke:#0000ff;stroke-opacity:1">
        <path
           d="m 78.8,88.2 56.2,-41 85,-34.6 104,6.3 79,50.4 44,59.7 3,91 -53,73 -57,47 -97,51 -82,53 -44,44 -10,73 28,60 85,41 86,3 53,-19 54,-38"
           style="fill:none;fill-opacity:1;stroke:#0000ff;stroke-width:0.111in;stroke-opacity:1"
           transform="scale(0.0211667,-0.0211667)"
           id="path14983" />
        <path
           d="M 419,384 356,428 265,438 186,413 120,343 91.4,265 101,145 161,53.6 246,6.3 h 78 l 98,53.6"
           style="fill:none;fill-opacity:1;stroke:#0000ff;stroke-width:0.111in;stroke-opacity:1"
           transform="matrix(0.0211667,0,0,-0.0211667,10.2658,0)"
           id="path14985" />
        <path
           d="m 419,365 -63,45 -85,31 -95,-31 -72,-95 -19,-79 12.6,-94 44.4,-94.8 88,-31.4 94,28.3 57,65.9 38,76 3,242 V 66.1 l 10,-34.6 15,-12.6 h 22"
           style="fill:none;fill-opacity:1;stroke:#0000ff;stroke-width:0.111in;stroke-opacity:1"
           transform="matrix(0.0211667,0,0,-0.0211667,19.7274,0)"
           id="path14987" />
        <path
           d="M 117,658 V 9.45"
           style="fill:none;fill-opacity:1;stroke:#0000ff;stroke-width:0.111in;stroke-opacity:1"
           transform="matrix(0.0211667,0,0,-0.0211667,30.2684,0)"
           id="path14989" />
        <path
           d="m 53.5,249 119.5,-32 126,-9 82,25 54,69 -13,57 -47,57 -98,22 -82,-28 -56,-76 -29,-60 v -98 l 25,-81.5 82,-72.4 73,-15.8 69,6.3 76,50.4"
           style="fill:none;fill-opacity:1;stroke:#0000ff;stroke-width:0.111in;stroke-opacity:1"
           transform="matrix(0.0211667,0,0,-0.0211667,34.2054,0)"
           id="path14991" />
      </g>
    </g>
  </g>
  <g
     id="g2094"
     transform="translate(0,-1.058333)">
    <g
       id="p-0"
       style="fill:none;stroke:#ff0000;stroke-linecap:round;stroke-linejoin:round;stroke-opacity:1"
       transform="translate(-9.8999979,65.0394)">
      <path
         d="M 13.1,112.35 H 18 v 2.9 c 0,0.055 0.045,0.1 0.1,0.1 h 6 c 0.055,0 0.1,-0.045 0.1,-0.1 v -2.9 H 30 v 2.9 c 0,0.055 0.045,0.1 0.1,0.1 h 6 c 0.055,0 0.1,-0.045 0.1,-0.1 v -2.9 H 42 v 2.9 c 0,0.055 0.045,0.1 0.1,0.1 h 6 c 0.055,0 0.1,-0.045 0.1,-0.1 v -2.9 H 54 v 2.9 c 0,0.055 0.045,0.1 0.1,0.1 h 6 c 0.055,0 0.1,-0.045 0.1,-0.1 v -2.9 H 66 v 2.9 c 0,0.055 0.045,0.1 0.1,0.1 h 6 c 0.055,0 0.1,-0.045 0.1,-0.1 v -2.9 H 78 v 2.9 c 0,0.055 0.045,0.1 0.1,0.1 h 6 c 0.055,0 0.1,-0.045 0.1,-0.1 v -2.9 H 90 v 2.9 c 0,0.055 0.045,0.1 0.1,0.1 h 6 c 0.055,0 0.1,-0.045 0.1,-0.1 v -2.9 h 5.8 v 2.9 c 0,0.055 0.045,0.1 0.1,0.1 h 6 c 0.055,0 0.1,-0.045 0.1,-0.1 v -2.9 h 4.9 c 0.055,0 0.1,-0.045 0.1,-0.1 v -4.4 h 2.9 c 0.055,0 0.1,-0.045 0.1,-0.1 v -6 c 0,-0.055 -0.045,-0.1 -0.1,-0.1 h -2.9 v -4.4 c 0,-0.049 -0.035,-0.09 -0.083,-0.098 l -5.585,-0.985 0.504,-2.856 c 0.009,-0.055 -0.027,-0.106 -0.081,-0.116 l -5.909,-1.042 c -0.055,-0.01 -0.106,0.027 -0.116,0.081 l -0.504,2.856 -5.711,-1.007 0.503,-2.856 c 0.01,-0.054 -0.027,-0.106 -0.081,-0.116 l -5.909,-1.042 c -0.054,-0.009 -0.106,0.027 -0.116,0.081 l -0.503,2.856 -5.712,-1.007 0.503,-2.856 c 0.01,-0.054 -0.026,-0.106 -0.081,-0.116 L 78.41,87.985 c -0.054,-0.009 -0.106,0.027 -0.115,0.082 l -0.504,2.856 -5.712,-1.008 0.504,-2.856 c 0.009,-0.054 -0.027,-0.106 -0.081,-0.115 l -5.909,-1.042 c -0.055,-0.01 -0.107,0.026 -0.116,0.081 l -0.504,2.856 -5.712,-1.007 0.504,-2.856 c 0.01,-0.055 -0.027,-0.107 -0.081,-0.116 l -5.909,-1.042 c -0.054,-0.01 -0.106,0.027 -0.116,0.081 l -0.503,2.856 -5.712,-1.007 0.503,-2.856 c 0.01,-0.055 -0.026,-0.106 -0.081,-0.116 l -5.909,-1.042 c -0.054,-0.009 -0.106,0.027 -0.115,0.081 l -0.504,2.856 -5.712,-1.007 0.504,-2.856 c 0.009,-0.054 -0.027,-0.106 -0.081,-0.116 L 31.14,79.65 c -0.055,-0.009 -0.107,0.027 -0.116,0.081 l -0.504,2.856 -5.712,-1.007 0.504,-2.856 c 0.01,-0.054 -0.027,-0.106 -0.081,-0.116 l -5.909,-1.041 c -0.054,-0.01 -0.106,0.026 -0.116,0.081 l -0.503,2.856 -5.586,-0.985 C 13.056,79.508 13,79.555 13,79.617 v 7.217 h -2.9 c -0.055,0 -0.1,0.044 -0.1,0.1 v 6 c 0,0.055 0.045,0.1 0.1,0.1 H 13 v 5.8 h -2.9 c -0.055,0 -0.1,0.044 -0.1,0.1 v 6 c 0,0.055 0.045,0.1 0.1,0.1 H 13 v 7.216 c 0,0.055 0.045,0.1 0.1,0.1 z"
         stroke="#000000"
         stroke-width="0.2"
         id="path6"
         style="stroke:#ff0000;stroke-opacity:1" />
    </g>
    <g
       style="fill:none;stroke:#0000ff;stroke-linecap:round;stroke-linejoin:round;stroke-opacity:1"
       id="g18732"
       transform="translate(-10.933275,4.5804565)">
      <g
         transform="translate(17.3986,165.676)"
         id="g18730"
         style="stroke:#0000ff;stroke-opacity:1">
        <path
           d="M 485,658 H 132 151 V 15.8 H 491 M 72.5,362 H 441"
           style="stroke:#0000ff;stroke-width:0.111in;stroke-opacity:1"
           transform="scale(0.0211667,-0.0211667)"
           id="path18718" />
        <path
           d="M 425,350 340,419 239,432 154,387 94.5,302 85,186 113,85.1 161,28.4 233,9.45 l 60,18.95 57,44 44,69.6 31,78 v 208 l 3,-434.3 -18,-66.2 -45,-72.5 -69,-44 -66,-6 -54,12 -66,25"
           style="stroke:#0000ff;stroke-width:0.111in;stroke-opacity:1"
           transform="matrix(0.0211667,0,0,-0.0211667,11.0067,0)"
           id="path18720" />
        <path
           d="M 425,350 340,419 239,432 154,387 94.5,302 85,186 113,85.1 161,28.4 233,9.45 l 60,18.95 57,44 44,69.6 31,78 v 208 l 3,-434.3 -18,-66.2 -45,-72.5 -69,-44 -66,-6 -54,12 -66,25"
           style="stroke:#0000ff;stroke-width:0.111in;stroke-opacity:1"
           transform="matrix(0.0211667,0,0,-0.0211667,21.336,0)"
           id="path18722" />
        <path
           d="m 353,394 -98,44 -85,-13 -60,-69 22,-69 120,-54 104,-57 19,-63 L 337,44.1 230,9.45 129,34.6 85,75.6"
           style="stroke:#0000ff;stroke-width:0.111in;stroke-opacity:1"
           transform="matrix(0.0211667,0,0,-0.0211667,31.6654,0)"
           id="path18724" />
        <path
           d="M 91.4,230 H 321"
           style="stroke:#0000ff;stroke-width:0.111in;stroke-opacity:1"
           transform="matrix(0.0211667,0,0,-0.0211667,48.1331,0)"
           id="path18726" />
        <path
           d="M 107,432 441,271 438,258 107,91.4"
           style="stroke:#0000ff;stroke-width:0.111in;stroke-opacity:1"
           transform="matrix(0.0211667,0,0,-0.0211667,55.9436,0)"
           id="path18728" />
      </g>
    </g>
  </g>
  <g
     id="g1896"
     transform="matrix(1,0,0,-1,-4.74017,179.9415)">
    <g
       id="p-1"
       style="fill:none;stroke:#ff0000;stroke-linecap:round;stroke-linejoin:round;stroke-opacity:1"
       transform="matrix(0,1,1,0,62.803919,-117.20126)">
      <path
         d="m 120.8,112.35 h 4.9 v 2.9 c 0,0.055 0.045,0.1 0.1,0.1 h 6 c 0.055,0 0.1,-0.045 0.1,-0.1 v -2.9 h 5.8 v 2.9 c 0,0.055 0.045,0.1 0.1,0.1 h 6 c 0.055,0 0.1,-0.045 0.1,-0.1 v -2.9 h 5.8 v 2.9 c 0,0.055 0.045,0.1 0.1,0.1 h 6 c 0.055,0 0.1,-0.045 0.1,-0.1 v -2.9 h 5.8 v 2.9 c 0,0.055 0.045,0.1 0.1,0.1 h 6 c 0.055,0 0.1,-0.045 0.1,-0.1 v -2.9 h 5.8 v 2.9 c 0,0.055 0.045,0.1 0.1,0.1 h 6 c 0.055,0 0.1,-0.045 0.1,-0.1 v -2.9 h 5.8 v 2.9 c 0,0.055 0.045,0.1 0.1,0.1 h 6 c 0.055,0 0.1,-0.045 0.1,-0.1 v -2.9 h 5.8 v 2.9 c 0,0.055 0.045,0.1 0.1,0.1 h 6 c 0.055,0 0.1,-0.045 0.1,-0.1 v -2.9 h 5.8 v 2.9 c 0,0.055 0.045,0.1 0.1,0.1 h 6 c 0.055,0 0.1,-0.045 0.1,-0.1 v -2.9 h 4.9 c 0.055,0 0.1,-0.045 0.1,-0.1 v -4.4 h 2.9 c 0.055,0 0.1,-0.045 0.1,-0.1 v -6 c 0,-0.055 -0.045,-0.1 -0.1,-0.1 h -2.9 v -4.4 c 0,-0.049 -0.035,-0.09 -0.083,-0.098 l -5.585,-0.985 0.504,-2.856 c 0.009,-0.055 -0.027,-0.106 -0.081,-0.116 l -5.909,-1.042 c -0.055,-0.01 -0.106,0.027 -0.116,0.081 l -0.504,2.856 -5.711,-1.007 0.503,-2.856 c 0.01,-0.054 -0.027,-0.106 -0.081,-0.116 l -5.909,-1.042 c -0.054,-0.009 -0.106,0.027 -0.116,0.081 l -0.503,2.856 -5.712,-1.007 0.503,-2.856 c 0.01,-0.054 -0.026,-0.106 -0.081,-0.116 l -5.909,-1.042 c -0.054,-0.009 -0.106,0.027 -0.115,0.082 l -0.504,2.856 -5.712,-1.008 0.504,-2.856 c 0.009,-0.054 -0.027,-0.106 -0.081,-0.115 l -5.909,-1.042 c -0.055,-0.01 -0.107,0.026 -0.116,0.081 l -0.504,2.856 -5.712,-1.007 0.504,-2.856 c 0.01,-0.055 -0.027,-0.107 -0.081,-0.116 l -5.909,-1.042 c -0.054,-0.01 -0.106,0.027 -0.116,0.081 l -0.503,2.856 -5.712,-1.007 0.503,-2.856 c 0.01,-0.055 -0.026,-0.106 -0.081,-0.116 l -5.909,-1.042 c -0.054,-0.009 -0.106,0.027 -0.115,0.081 l -0.504,2.856 -5.712,-1.007 0.504,-2.856 c 0.009,-0.054 -0.027,-0.106 -0.081,-0.116 L 138.84,79.65 c -0.055,-0.009 -0.107,0.027 -0.116,0.081 l -0.504,2.856 -5.712,-1.007 0.504,-2.856 c 0.01,-0.054 -0.027,-0.106 -0.081,-0.116 l -5.909,-1.041 c -0.054,-0.01 -0.106,0.026 -0.116,0.081 l -0.503,2.856 -5.586,-0.985 c -0.061,-0.011 -0.117,0.036 -0.117,0.098 v 7.217 h -2.9 c -0.055,0 -0.1,0.044 -0.1,0.1 v 6 c 0,0.055 0.045,0.1 0.1,0.1 h 2.9 v 5.8 h -2.9 c -0.055,0 -0.1,0.044 -0.1,0.1 v 6 c 0,0.055 0.045,0.1 0.1,0.1 h 2.9 v 7.216 c 0,0.055 0.045,0.1 0.1,0.1 z"
         stroke="#000000"
         stroke-width="0.2"
         id="path9"
         style="stroke:#ff0000;stroke-opacity:1" />
    </g>
    <g
       style="fill:none;stroke:#0000ff;stroke-linecap:round;stroke-linejoin:round;stroke-opacity:1"
       transform="rotate(-90,-69.929246,-2.2330725)"
       id="g1698">
      <g
         transform="translate(-149.09,236.553)"
         id="g1696"
         style="stroke:#0000ff;stroke-opacity:1">
        <path
           d="M 416,432 78.8,261 416,81.9"
           style="stroke:#0000ff;stroke-width:0.111in;stroke-opacity:1"
           transform="scale(0.0211667,-0.0211667)"
           id="path1684" />
        <path
           d="M 91.4,230 H 321"
           style="stroke:#0000ff;stroke-width:0.111in;stroke-opacity:1"
           transform="matrix(0.0211667,0,0,-0.0211667,9.99068,0)"
           id="path1686" />
        <path
           d="M 485,658 H 132 151 V 15.8 H 491 M 72.5,362 H 441"
           style="stroke:#0000ff;stroke-width:0.111in;stroke-opacity:1"
           transform="matrix(0.0211667,0,0,-0.0211667,25.8022,0)"
           id="path1688" />
        <path
           d="M 425,350 340,419 239,432 154,387 94.5,302 85,186 113,85.1 161,28.4 233,9.45 l 60,18.95 57,44 44,69.6 31,78 v 208 l 3,-434.3 -18,-66.2 -45,-72.5 -69,-44 -66,-6 -54,12 -66,25"
           style="stroke:#0000ff;stroke-width:0.111in;stroke-opacity:1"
           transform="matrix(0.0211667,0,0,-0.0211667,36.8089,0)"
           id="path1690" />
        <path
           d="M 425,350 340,419 239,432 154,387 94.5,302 85,186 113,85.1 161,28.4 233,9.45 l 60,18.95 57,44 44,69.6 31,78 v 208 l 3,-434.3 -18,-66.2 -45,-72.5 -69,-44 -66,-6 -54,12 -66,25"
           style="stroke:#0000ff;stroke-width:0.111in;stroke-opacity:1"
           transform="matrix(0.0211667,0,0,-0.0211667,47.1382,0)"
           id="path1692" />
        <path
           d="m 353,394 -98,44 -85,-13 -60,-69 22,-69 120,-54 104,-57 19,-63 L 337,44.1 230,9.45 129,34.6 85,75.6"
           style="stroke:#0000ff;stroke-width:0.111in;stroke-opacity:1"
           transform="matrix(0.0211667,0,0,-0.0211667,57.4676,0)"
           id="path1694" />
      </g>
    </g>
  </g>
</svg>
